<svg viewBox="0 0 100 100" xmlns="http://www.w3.org/2000/svg">
  <defs>
    <linearGradient id="neon-cyan" x1="0%" y1="0%" x2="100%" y2="100%">
      <stop offset="0%" stop-color="#00ffff"/>
      <stop offset="100%" stop-color="#00aaff"/>
    </linearGradient>
    <filter id="neon-glow" x="-50%" y="-50%" width="200%" height="200%">
      <feGaussianBlur stdDeviation="1.5" result="blur1"/>
      <feGaussianBlur stdDeviation="3" result="blur2"/>
      <feMerge>
        <feMergeNode in="blur2"/>
        <feMergeNode in="blur1"/>
        <feMergeNode in="SourceGraphic"/>
      </feMerge>
    </filter>
  </defs>
  <rect width="100" height="100" fill="#000"/>
  <g filter="url(#neon-glow)">
    <path d="M5 5 L95 5 L95 15 L92 18 L38 18 L78 72 L92 72 L95 75 L95 95 L5 95 L5 85 L8 82 L62 82 L22 28 L8 28 L5 25 Z" 
          fill="none" stroke="url(#neon-cyan)" stroke-width="2.5" stroke-linejoin="miter"/>
    <path d="M12 10 L88 10 L88 14 L42 14 L82 76 L88 76 L88 90 L12 90 L12 86 L58 86 L18 24 L12 24 Z" 
          fill="none" stroke="url(#neon-cyan)" stroke-width="1" opacity="0.4"/>
    <path d="M56 34 L50 46 L57 46 L48 62" 
          fill="none" stroke="#00ffff" stroke-width="2" stroke-linecap="round" stroke-linejoin="round"/>
    <path d="M18 8 L18 14 M82 8 L82 14" stroke="#00ffff" stroke-width="1" stroke-linecap="round" opacity="0.6"/>
    <path d="M18 86 L18 92 M82 86 L82 92" stroke="#00ffff" stroke-width="1" stroke-linecap="round" opacity="0.6"/>
  </g>
</svg>
